<?xml version="1.0" encoding="UTF-8"?>
<!-- Created with Inkscape (http://www.inkscape.org/) -->
<svg width="242.82mm" height="228.83mm" version="1.1" viewBox="0 0 242.82 228.83" xml:space="preserve" xmlns="http://www.w3.org/2000/svg"><defs><linearGradient id="paint0_linear" x1="6.0002" x2="235" y1="33" y2="344" gradientTransform="matrix(.07142 0 0 .07142 1.3398 1.8944)" gradientUnits="userSpaceOnUse"><stop stop-color="#41D1FF" offset="0"/><stop stop-color="#BD34FE" offset="1"/></linearGradient><linearGradient id="paint1_linear" x1="194.65" x2="236.08" y1="8.8182" y2="292.99" gradientTransform="matrix(.07142 0 0 .07142 1.3398 1.8944)" gradientUnits="userSpaceOnUse"><stop stop-color="#FFEA83" offset="0"/><stop stop-color="#FFDD35" offset=".0833"/><stop stop-color="#FFA800" offset="1"/></linearGradient></defs><g transform="translate(-26.185 -43.157)"><g transform="matrix(7.0666 0 0 7.0666 56.582 29.624)"><path d="m29.884 6.146-13.142 23.5c-0.2714 0.4851-0.9684 0.488-1.2439 0.0052l-13.402-23.503c-0.3-0.5262 0.1498-1.1635 0.746-1.057l13.156 2.3516a0.7144 0.7144 0 0 0 0.2537-4e-4l12.881-2.3478c0.5942-0.1083 1.0463 0.5241 0.7515 1.0513z" fill="url(#paint0_linear)"/><path d="m22.264 2.0069-9.7253 1.9056a0.3571 0.3571 0 0 0-0.2879 0.3294l-0.5982 10.104c-0.014 0.238 0.2045 0.4227 0.4367 0.3691l2.7077-0.6248c0.2534-0.0585 0.4823 0.1647 0.4302 0.4194l-0.8044 3.9393c-0.0542 0.265 0.1947 0.4918 0.4536 0.4132l1.6724-0.5082c0.2593-0.0787 0.5084 0.1487 0.4536 0.414l-1.2784 6.1877c-0.08 0.387 0.4348 0.598 0.6495 0.2662l0.1434-0.2216 7.9247-15.815c0.1327-0.2648-0.096-0.5667-0.387-0.5106l-2.787 0.5379c-0.262 0.0505-0.4848-0.1934-0.4109-0.4497l1.8191-6.306c0.074-0.2568-0.1496-0.5009-0.4118-0.4495z" fill="url(#paint1_linear)"/></g><g transform="matrix(6.6146 0 0 6.6146 -11.584 73.545)"><path d="m5.987 17.15c0.04 0.826 0.865 0.444 1.239 0.186 0.355-0.245 0.459-0.041 0.49-0.525a7.937 7.937 0 0 0 0.039-0.955 2.342 2.342 0 0 0-1.56 0.4c-0.227 0.165-0.651 0.69-0.208 0.9" fill="#f6d2a2" fill-rule="evenodd"/><path d="m6.416 17.732a0.527 0.527 0 0 1-0.236-0.051 0.541 0.541 0 0 1-0.27-0.482 0.358 0.358 0 0 1-0.2-0.283 1.006 1.006 0 0 1 0.432-0.727 2.4 2.4 0 0 1 1.613-0.413l0.068 6e-3v0.068a5.667 5.667 0 0 1-0.023 0.747c-6e-3 0.073-0.011 0.145-0.016 0.218-0.022 0.343-0.086 0.395-0.263 0.456a0.975 0.975 0 0 0-0.261 0.129 1.788 1.788 0 0 1-0.844 0.332zm1.11-1.808a2.2 2.2 0 0 0-1.286 0.394c-0.162 0.118-0.387 0.394-0.368 0.584a0.219 0.219 0 0 0 0.147 0.177l0.043 0.02v0.047c0.01 0.206 0.072 0.338 0.185 0.394 0.218 0.108 0.624-0.058 0.931-0.269a1.127 1.127 0 0 1 0.3-0.148c0.116-0.04 0.14-0.049 0.157-0.318 0-0.073 0.01-0.146 0.016-0.22a6.148 6.148 0 0 0 0.026-0.658q-0.077-3e-3 -0.15-3e-3z" display="none"/><path d="m5.987 17.15a0.65 0.65 0 0 0 0.329-0.185" fill="#c6b198" fill-rule="evenodd"/><path d="m5.987 17.229a0.079 0.079 0 0 1-0.027-0.152l0.053-0.019a0.473 0.473 0 0 0 0.241-0.139 0.079 0.079 0 1 1 0.126 0.094 0.615 0.615 0 0 1-0.314 0.193l-0.051 0.018a0.078 0.078 0 0 1-0.028 5e-3z" display="none"/><path d="m7.894 7.309c-3.163-0.889-0.811-4.909 1.728-3.257z" fill="#6ad7e5" fill-rule="evenodd"/><path d="m7.934 7.4-0.061-0.017a1.927 1.927 0 0 1-1.562-1.5 2.094 2.094 0 0 1 0.977-1.979 2.116 2.116 0 0 1 2.378 0.081l0.06 0.039zm0.449-3.666a1.852 1.852 0 0 0-1.01 0.3 1.933 1.933 0 0 0-0.907 1.823 1.755 1.755 0 0 0 1.388 1.359l1.665-3.137a2.17 2.17 0 0 0-1.136-0.343z" display="none"/><path d="m21.944 3.75c2.5-1.758 4.765 2.209 1.856 3.207z" fill="#6ad7e5" fill-rule="evenodd"/><path d="m23.765 7.052-1.925-3.325 0.059-0.041a2.066 2.066 0 0 1 2.295-0.193 2.122 2.122 0 0 1 1.044 1.965 1.881 1.881 0 0 1-1.413 1.573zm-1.716-3.279 1.787 3.087a1.712 1.712 0 0 0 1.246-1.418 1.961 1.961 0 0 0-0.967-1.814 1.857 1.857 0 0 0-2.066 0.145z" display="none"/><path d="m22.483 27.317c0.636 0.393 1.8 1.583 0.844 2.16-0.916 0.839-1.429-0.921-2.234-1.165a2.225 2.225 0 0 1 1.39-0.995z" fill="#f6d2a2" fill-rule="evenodd"/><path d="m22.844 29.781h-0.038c-0.361-0.022-0.661-0.374-0.951-0.715a2.041 2.041 0 0 0-0.785-0.677l-0.106-0.032 0.066-0.09a2.323 2.323 0 0 1 1.441-1.026h0.029l0.025 0.015c0.407 0.252 1.247 0.988 1.243 1.654a0.73 0.73 0 0 1-0.393 0.636 0.791 0.791 0 0 1-0.531 0.235zm-1.625-1.5a2.505 2.505 0 0 1 0.756 0.687c0.281 0.33 0.547 0.642 0.841 0.66a0.626 0.626 0 0 0 0.457-0.2l0.012-9e-3a0.578 0.578 0 0 0 0.324-0.506c0-0.532-0.672-1.2-1.144-1.5a2.055 2.055 0 0 0-1.246 0.863z" display="none"/><path d="m23.327 29.556a0.079 0.079 0 0 1-0.07-0.043 2.918 2.918 0 0 1-0.123-0.3 1.309 1.309 0 0 0-0.286-0.518 0.079 0.079 0 0 1 0.109-0.113 1.447 1.447 0 0 1 0.325 0.577 2.806 2.806 0 0 0 0.116 0.28 0.079 0.079 0 0 1-0.035 0.106 0.078 0.078 0 0 1-0.036 0.011z" display="none"/><path d="m11.124 28.662c-0.746 0.115-1.166 0.789-1.788 1.131-0.586 0.35-0.811-0.112-0.863-0.206-0.092-0.042-0.084 0.039-0.226-0.1-0.547-0.862 0.565-1.487 1.143-1.915 0.805-0.163 1.31 0.535 1.734 1.09z" fill="#f6d2a2" fill-rule="evenodd"/><path d="m8.939 30a0.535 0.535 0 0 1-0.141-0.018 0.647 0.647 0 0 1-0.38-0.33h-0.018c-0.066 0-0.115-0.014-0.213-0.113l-0.011-0.013c-0.523-0.826 0.367-1.453 0.957-1.868 0.074-0.052 0.144-0.1 0.207-0.148l0.014-0.01h0.017c0.829-0.168 1.353 0.518 1.773 1.069l0.119 0.155-0.131 0.02a2.263 2.263 0 0 0-1.105 0.634 4.023 4.023 0 0 1-0.657 0.488 0.859 0.859 0 0 1-0.431 0.134zm-0.527-0.506a0.213 0.213 0 0 1 0.092 0.021l0.023 0.011 0.02 0.035a0.509 0.509 0 0 0 0.292 0.269 0.6 0.6 0 0 0 0.456-0.1 3.909 3.909 0 0 0 0.633-0.471 2.629 2.629 0 0 1 1.056-0.644c-0.4-0.526-0.862-1.094-1.562-0.963-0.061 0.044-0.127 0.091-0.2 0.139-0.6 0.424-1.352 0.952-0.919 1.648 0.062 0.062 0.077 0.061 0.09 0.061z" display="none"/><path d="m8.472 29.665h-7e-3a0.079 0.079 0 0 1-0.072-0.085 1.2 1.2 0 0 1 0.253-0.572 1.852 1.852 0 0 0 0.165-0.276 0.079 0.079 0 0 1 0.144 0.064 1.992 1.992 0 0 1-0.178 0.3 1.065 1.065 0 0 0-0.226 0.5 0.079 0.079 0 0 1-0.079 0.069z" display="none"/><g fill-rule="evenodd"><path d="m8.026 6.2c-0.417-0.221-0.723-0.52-0.468-1 0.236-0.447 0.675-0.4 1.092-0.178z"/><path d="m23.141 5.778c0.417-0.221 0.723-0.52 0.468-1-0.236-0.447-0.675-0.4-1.092-0.178z"/><path d="m26.013 17.046c-0.04 0.826-0.865 0.444-1.239 0.186-0.355-0.245-0.459-0.041-0.49-0.525a7.936 7.936 0 0 1-0.039-0.955 2.342 2.342 0 0 1 1.56 0.4c0.227 0.165 0.651 0.69 0.208 0.9" fill="#f6d2a2"/></g><path d="m25.584 17.627a1.788 1.788 0 0 1-0.854-0.331 0.975 0.975 0 0 0-0.261-0.129c-0.177-0.062-0.241-0.114-0.263-0.456 0-0.073-0.01-0.145-0.016-0.218a5.676 5.676 0 0 1-0.023-0.747v-0.068l0.068-6e-3a2.4 2.4 0 0 1 1.613 0.413 1.006 1.006 0 0 1 0.432 0.727 0.358 0.358 0 0 1-0.2 0.283 0.541 0.541 0 0 1-0.27 0.482 0.527 0.527 0 0 1-0.226 0.05zm-1.263-1.8a6.148 6.148 0 0 0 0.026 0.658c6e-3 0.073 0.011 0.146 0.016 0.22 0.017 0.269 0.041 0.277 0.157 0.318a1.127 1.127 0 0 1 0.3 0.148c0.306 0.212 0.713 0.377 0.931 0.269 0.113-0.056 0.175-0.188 0.185-0.394v-0.047l0.043-0.02a0.219 0.219 0 0 0 0.147-0.177c0.018-0.19-0.206-0.466-0.368-0.584a2.232 2.232 0 0 0-1.437-0.394z" display="none"/><path d="m26.013 17.046a0.65 0.65 0 0 1-0.329-0.185" fill="#c6b198" fill-rule="evenodd"/><path d="m26.013 17.124a0.078 0.078 0 0 1-0.027 0l-0.051-0.018a0.614 0.614 0 0 1-0.314-0.193 0.079 0.079 0 1 1 0.126-0.094 0.473 0.473 0 0 0 0.241 0.139l0.053 0.019a0.079 0.079 0 0 1-0.027 0.152z" display="none"/><path d="m15.683 2.079c3.166 0 6.134 0.453 7.681 3.495 1.389 3.409 0.895 7.086 1.107 10.689 0.182 3.094 0.585 6.668-0.85 9.536-1.51 3.016-5.283 3.775-8.392 3.664-2.442-0.087-5.391-0.884-6.769-3.115-1.617-2.617-0.851-6.509-0.734-9.421 0.139-3.449-0.934-6.91 0.2-10.285 1.176-3.5 4.346-4.293 7.758-4.563" fill="#6ad7e5" fill-rule="evenodd"/><path transform="matrix(.15118 0 0 .15118 1.7513 -11.119)" d="m39.229 171.54s18.393 3.9004 27.697 5.1896c6.7879 0.94047 13.634 1.4399 20.475 1.8505 3.5976 0.21596 10.808 0.32192 10.808 0.32192s1.1984 5.1076 3.0579 6.7194c1.5077 1.3067 3.764 1.9186 5.7448 1.6802 2.1229-0.25556 4.2715-1.4992 5.5535-3.2104 1.3633-1.8197 1.6169-6.6267 1.6169-6.6267s19.526-0.6956 28.584-3.9295c2.6234-0.93667 7.1278-4.3627 7.1278-4.3627s0.10312 4.7943 0.21022 7.1894c0.22208 4.9662 0.70379 9.919 0.8964 14.886 0.34893 8.9987 1.0571 18.026 0.46923 27.012-0.18867 2.8839-0.72151 5.7396-1.2787 8.5754-0.58765 2.9908-2.1736 8.8818-2.1736 8.8818s-12.877 7.3777-20.012 8.9658c-20.865 4.6439-43.118 5.0677-64.118 1.0767-8.6694-1.6476-24.462-10.124-24.462-10.124s-1.2339-6.6727-1.5355-10.047c-0.36553-4.0894-0.41546-8.2079-0.32803-12.313 0.20049-9.4126 1.7272-18.765 1.9538-28.177 0.10879-4.5196-0.28614-13.56-0.28614-13.56z" fill="#654ff0"/><path d="m15.77 29.55c-0.2 0-0.38 0-0.543-0.01-1.5-0.054-5.176-0.469-6.833-3.152-1.307-2.116-1.074-5.041-0.869-7.622 0.052-0.649 0.1-1.263 0.124-1.843a29.673 29.673 0 0 0-0.157-3.666 16.216 16.216 0 0 1 0.36-6.641 5.812 5.812 0 0 1 3.08-3.539 12.948 12.948 0 0 1 4.745-1.077h6e-3c3.091 0 6.17 0.429 7.751 3.538v6e-3a20.518 20.518 0 0 1 1.044 7.762c5e-3 0.969 0.011 1.972 0.068 2.952 0.017 0.3 0.037 0.6 0.057 0.9 0.184 2.841 0.392 6.062-0.915 8.673-1.629 3.261-5.741 3.719-7.918 3.719zm-0.084-27.393c-3.294 0.261-6.5 0.988-7.687 4.509a16.1 16.1 0 0 0-0.353 6.578 29.788 29.788 0 0 1 0.154 3.686c-0.024 0.584-0.072 1.2-0.124 1.85-0.2 2.557-0.434 5.455 0.846 7.527 1.618 2.619 5.228 3.025 6.705 3.077 1.922 0.069 6.579-0.147 8.318-3.621 1.288-2.573 1.081-5.771 0.9-8.592-0.02-0.3-0.039-0.606-0.057-0.9-0.058-0.984-0.063-1.989-0.068-2.96a20.408 20.408 0 0 0-1.031-7.7c-1.539-3.035-4.564-3.453-7.603-3.454z" display="none"/><path d="m16.242 6.329c0.568 3.3 5.97 2.431 5.194-0.9-0.7-2.988-5.383-2.161-5.194 0.9" fill="#fff" fill-rule="evenodd"/><path d="m18.808 8.485a3.025 3.025 0 0 1-0.988-0.162 2.444 2.444 0 0 1-1.653-1.982v-8e-3a2.672 2.672 0 0 1 2.416-2.814 2.482 2.482 0 0 1 2.927 1.891 2.312 2.312 0 0 1-0.673 2.343 3.072 3.072 0 0 1-2.029 0.732zm-2.49-2.165a2.3 2.3 0 0 0 1.552 1.86 2.987 2.987 0 0 0 2.865-0.54 2.165 2.165 0 0 0 0.627-2.2 2.335 2.335 0 0 0-2.762-1.77 2.524 2.524 0 0 0-2.282 2.65z" display="none"/><path d="m9.788 6.863c0.736 2.877 5.342 2.137 5.168-0.745-0.208-3.456-5.873-2.789-5.169 0.745" fill="#fff" fill-rule="evenodd"/><path d="m12.245 8.761a2.826 2.826 0 0 1-1.345-0.326 2.384 2.384 0 0 1-1.184-1.553 2.411 2.411 0 0 1 0.826-2.472 3.107 3.107 0 0 1 3.087-0.394 2.335 2.335 0 0 1 1.4 2.1 2.529 2.529 0 0 1-2.29 2.609 3.2 3.2 0 0 1-0.494 0.036zm-2.385-1.914a2.4 2.4 0 0 0 2.858 1.729 2.385 2.385 0 0 0 2.165-2.454 2.193 2.193 0 0 0-1.314-1.976 2.953 2.953 0 0 0-2.935 0.374 2.269 2.269 0 0 0-0.774 2.327z" display="none"/><path d="m16.894 10.294a7.45 7.45 0 0 1 0.016 1.369c-0.11 0.207-0.325 0.229-0.51 0.313a0.751 0.751 0 0 1-0.575-0.449 9.72 9.72 0 0 1 0.041-1.549z" fill="#fff" fill-rule="evenodd"/><path d="m16.411 12.057h-0.023a0.828 0.828 0 0 1-0.635-0.5v-0.021a5.2 5.2 0 0 1 9e-3 -1.063c0.013-0.163 0.026-0.331 0.031-0.5v-0.1l1.181 0.362v0.058c0 0.142 0.012 0.289 0.024 0.444a3.746 3.746 0 0 1-8e-3 0.939v0.012l-6e-3 0.011a0.658 0.658 0 0 1-0.414 0.3c-0.047 0.017-0.091 0.032-0.134 0.052zm-0.509-0.551a0.671 0.671 0 0 0 0.488 0.388c0.041-0.017 0.083-0.032 0.123-0.047a0.525 0.525 0 0 0 0.322-0.211 3.683 3.683 0 0 0 0-0.887c-0.01-0.137-0.02-0.268-0.023-0.4l-0.875-0.268c-7e-3 0.136-0.017 0.271-0.027 0.4a5.05 5.05 0 0 0-0.01 1.025z" display="none"/><ellipse cx="11.058" cy="6.394" rx=".778" ry=".842"/><ellipse cx="11.412" cy="6.584" rx=".183" ry=".214" fill="#fff"/><ellipse cx="17.574" cy="6.184" rx=".765" ry=".842"/><ellipse cx="17.922" cy="6.374" rx=".18" ry=".214" fill="#fff"/><path d="m14.671 10.247c-0.339 0.822 0.189 2.467 1.11 1.254a9.72 9.72 0 0 1 0.041-1.549z" fill="#fff" fill-rule="evenodd"/><path d="m15.166 12.013a0.451 0.451 0 0 1-0.226-0.062 1.6 1.6 0 0 1-0.341-1.733l0.015-0.036 1.286-0.332v0.1c-5e-3 0.17-0.019 0.34-0.032 0.5a5 5 0 0 0-0.01 1.031v0.032l-0.019 0.026c-0.265 0.361-0.494 0.474-0.673 0.474zm-0.436-1.7a1.458 1.458 0 0 0 0.288 1.5c0.238 0.136 0.5-0.1 0.681-0.335a5.349 5.349 0 0 1 0.013-1.031c0.01-0.129 0.02-0.261 0.027-0.392z" display="none"/><path d="m14.787 8.663a1 1 0 0 0-0.821 1.4c0.435 0.788 1.407-0.07 2.013 0.011 0.7 0.014 1.268 0.737 1.827 0.131 0.622-0.674-0.268-1.331-0.964-1.624z" fill="#f6d2a2" fill-rule="evenodd"/><path d="m17.308 10.526a1.727 1.727 0 0 1-0.641-0.179 1.928 1.928 0 0 0-0.689-0.194h-9e-3a1.749 1.749 0 0 0-0.712 0.152c-0.491 0.17-1.048 0.362-1.36-0.2a0.946 0.946 0 0 1 0.014-0.917 1.118 1.118 0 0 1 0.869-0.6l2.077-0.088 0.016 7e-3c0.517 0.218 1.106 0.617 1.207 1.083a0.836 0.836 0 0 1-0.772 0.934zm-1.323-0.526a2.056 2.056 0 0 1 0.743 0.206c0.393 0.165 0.7 0.295 1.021-0.05a0.58 0.58 0 0 0 0.178-0.528c-0.087-0.4-0.642-0.769-1.1-0.964l-2.036 0.081a0.973 0.973 0 0 0-0.742 0.517 0.792 0.792 0 0 0-0.015 0.767c0.248 0.449 0.7 0.294 1.17 0.13a1.856 1.856 0 0 1 0.781-0.159z" display="none" fill="#231f20"/><path d="m14.708 8.63c-0.047-1.095 2.042-1.23 2.292-0.315s-2.186 1.128-2.289 0.316z" fill-rule="evenodd"/></g><g transform="matrix(1.6683 0 0 1.6683 129.16 178.3)"><path d="m19.153 2.35v0.15a3.2 3.2 0 1 1-6.4 0v-0.15h-10.753v27.919h27.919v-27.919z" display="none" fill="#654ff0"/><path d="m-22.483 19.391h2.5378l1.7353 9.2225h0.03155l2.081-9.2225h2.3745l1.8807 9.3418h0.03704l1.9754-9.3418h2.4898l-3.2347 13.56h-2.52l-1.8656-9.2293h-0.04939l-1.9973 9.2293h-2.5652zm18.003 0h4.0015l3.9782 13.56h-2.6215l-0.86422-3.0179h-4.5584l-0.66668 3.0179h-2.5501zm1.5227 3.343-1.107 4.9754h3.4459l-1.2675-4.9823z" fill="#fff"/></g></g></svg>
